<svg xmlns="http://www.w3.org/2000/svg" xml:space="preserve" id="Layer_1" x="0" y="0" class="illustrations_image" data-imageid="ecology-88" style="width:188px" version="1.1" viewBox="0 0 500 500"><style>.st2_ecology-88{fill:#68e1fd}.st3_ecology-88{fill:#075b5d}.st4_ecology-88{opacity:.3;fill:#075b5d;enable-background:new}.st7_ecology-88{fill:#653200}.st8_ecology-88{fill:#2c9135}.st9_ecology-88{fill:#156819}.st14_ecology-88{fill:#f04900}.st17_ecology-88{fill:#ffa86a}</style><g id="_0336_ecology_ecology-88"><path id="field_ecology-88" d="M242.8 410.3 17.1 276.9c-7.2-4-13.4-10.7-6.4-15l226.5-130.6c3.4-2.1 8.6-3.5 12-1.5l236.9 137.5c7.2 4.2 8.5 15.8 1.3 20L272.4 410c-9 5.4-20.3 5.5-29.6.3" style="fill:#007f68"/><g id="ecology_ecology-88"><linearGradient id="SVGID_1_-ecology-88" x1="163.495" x2="182.335" y1="867.957" y2="839.697" gradientTransform="translate(0 -498)" gradientUnits="userSpaceOnUse"><stop offset="0" style="stop-color:#007f68;stop-opacity:3.000000e-02"/><stop offset=".99" style="stop-color:#075b5d"/></linearGradient><path d="M216.5 384.6c-55.7-36.8-87.9-40.4-139.8-78.5 32.8-17.1 88.6-50.4 108.9-63.1l138.1 80.7-104.6 61z" style="opacity:.63;fill:url(#SVGID_1_)"/><path d="M155.6 294.4c.5-2.5.9-4.9 1.4-7.3q.45-1.65.6-3.3c0-.9-.2-1.9-.4-2.8 0-.8-.1-1.7-.3-2.5-.3-.5-1.4-1-1.9-1.3-.9-.6-1.9-1.3-2.8-2-.8-.6-1.4-1.5-1.8-2.4-1.1-2.2-2.3-4.3-3.5-6.5-.9-1.8-1.9-3.6-2.9-5.4-.6-1.1.4-3.1.7-4.3.1-.8.3-1.6.6-2.3l1.7-2.1c1.2-1.6 2.3-2.5 1.9-4.7-.1-.5-.4-.8 0-1.1 0-.1-.1-.8-.1-1 .2-.7-1.3-1.3-1.2-1.9.2-.8.2-.7-.5-1.1-.5-.3-.5-.2-1 0-.4.2-.7.5-1 .8-.2.2.3.7.4.9-.9.4-.9.5-1.3-.5-.2.6-1.1-.4-1.7-.5-.3-.1-.4.3-.6.1l-.9-.7c-.8-.4-1.5-1-2.2-1.6-.3-.6-.2-1.4-.6-1.9-1.1-1.3-1.8-2.4-3.3-2.9-1.2-.3-3.2-.4-4.2-1.4l-2.5-2.5c-.6-.5-1.3 0-2 .2-1.5.4-3-.6-4.4-1.2l-3.3-1.4c-.5-.1-.9-.3-1.3-.5L115 227c-.7-.7-.3-1.1 0-2.1.2-.6-1-1.9-1.3-2.4s-.7-1-1.2-1.4l-2.4-2.2c-.2-.2 0-.7.1-.9s-.4-.6-.5-.8-.3-.4-.5-.6c0 1.5.1 3 .2 4.5.3.3.7.7.6 1.1s-.3.6-.5.5c2.6 33.9 18 65.6 43.1 88.5.2-1.7.4-3.3.6-4.9.9-3.9 1.7-7.9 2.4-11.9" class="st2_ecology-88 targetColor" style="fill:#17c964"/><path d="M376.2 225.9c.1.4.1 1.1-.6.8-.2-.1-.4-1-.5-1.2.2 0 .4-.2.6-.3-.7-.6-1.7-.8-2.6-.3-.6.5-2.1 1.2-2.4 2.1-.1.2-.6 1.3-.4 1.5l1.1 1.8 1.8 2.4c.8 1 1.2 1.3 1.2 2.6 0 .8.5 2.6-.1 3.1-1.6 1.5-3.2 2.9-5 4.2-.6-.6.2-1.5-.2-1.9-.5-.6-1.1-1.2-1.7-1.8-.7-1-1.9-1.6-3.1-1.7l.1-1c-1.3.1-1.1.2-1.2 1.7-.1.9-.4 1.7-.8 2.5-.1.4-.1.7 0 1.1.1.7.1.6.7.5.3 0 .7 2.1.8 2.5.2.6 1.4 1.2 1.9 1.6.6.4 1.1 1 1.4 1.6.3.7 0 1.8.2 2.6s.5 1.5.9 2.2c-1-.3-2-.8-2.7-1.6-.7-.5-1.1-1.3-1.3-2.2-.2-.8-.5-2.5-1-3.1l-2.4-2.5c-.4-.4.1-2.5.2-3.1 0-1.1-.1-2.3-.2-3.4q-.3-3.15-1.5-6l-1.3 1.6c-.5.7-.5.6-1.3.4s-.8-.1-.6-1.1c0-.4.4-1.4.2-1.8-.6-1.3-.9-2.5-2-3.3s-1.2-2.1-1.7-3.2c-.5.3-1.1 1.1-1.7 1.1l-3 .4c-.1 0-.8 0-.8.1s.1.9 0 1l-1.5 1.5c-1.4 1.4-2.8 2.8-4.1 4.2-.6.4-1.3.8-2 1-.7.4-.5.9-.4 1.8.1.8.1 1.7 0 2.6-.2.7-.7 1.7-.5 2.4.1.9.5 1.7 1.1 2.4.5.7 1 1.5 1.2 2.3.7 1.6-2 2.9-2.2.8-.1-.9-.1-1.8-.1-2.7s-.3-1.1-.9-1.7c-.1.6 0 1.3-.5 1.6l-1.7 1.1c-1.5-2.9-2.9-6-4.2-9-.5-.8-.8-1.7-1.1-2.6-.1-.7-.1-1.3-.1-2-.1-2-.1-3.9-.2-5.9l-1.2 1.7c-.4.6-.5.5-1.1.5s-1.6-1.5-2.2-2.1c.5-.1 1.7-.1 1.8-.8-.3.1-.7.1-1 .1-.9-.4-1.7-.8-2.4-1.4-.5-.3-.8-1.6-1.1-2.1s-4.4.3-5.1.4c-1.5.2-3.1-.4-4.6-.8-.7-.1-1.4-.1-1.8-.8-.6-1.2-.5-1.6-1.7-1.1-.9.3-1.8.3-2.7.1-.6-.1-1.1-.9-1.7-1.2-.8-.3-1.5-.9-1.7-1.8-.4-.8-.5-1.7-1.3-1.9-1.4-.2-1.4-.1-2.3 1-.3.4.8 1.8 1.1 2.2.9 1.4 1.6 3 2.4 4.4l.3-2c.4 1 .6 2.1.5 3.2 1-.1 2.6.1 3.5-.4s1.7-2 2.5-2.8c.1.9-.1 2.2.5 2.7.4.3.8.6 1.3.9.4.2.9 0 1.1.4s.4 1.2.8 1.2c.6.1.4.5.3 1.1s-1.3 1.7-1.7 2.1c0-.2-.2-.4-.2-.6-.3.6-.5 1.3-.5 2s-.3.7-.9.9l-1.9.9c-.4.2-.4 1.2-.7 1.4s-.8-.2-1.1-.1l-1.4.6c-.6.3-.5 1.1-1.1 1.4-1 .4-2.1.7-3.1 1.1-.3.1-.4.3-.6.6s-.6.4-1 .4c-.9.2-1.8.5-2.7.7-.7.2-.8.9-1.5.9-1.1 0-1.2.2-1.4-.9l-.7-3.5c-.4-1.7-1.2-3.2-2.2-4.6-.5-.9-.6-1.1-1.6-1.5-.6-.2-.5-1.9-.7-2.5-.3-.9-.6-1.7-1.1-2.5-.2-.5-.8-.7-1.1-1.2-.6-1.1-1.2-2.2-1.9-3.4-.3-.6-.5-1.5-1.3-1.3l.3-2.1-.1 2.9c-.8-.9-1.5-2-2-3.1-.7.8.5 2.2.9 3l2.3 4.7c.5.9.3 2 1 2.7.3.3 1 .8 1.1 1.3.1.8.2 1.6.4 2.4.1.5 0 1.3.4 1.7.5.4 1 .9 1.4 1.4.6 1.2 1 2.4 1.4 3.7.1.4 1.2.3 1.5.6l1.3 1.5c.7.8 2.1 1.7 1 2.8.8.2 1.6 1.8 2.2 1.6l6.1-1.6c.4-.1 1.5-.6 1.8 0 .2.3-.5 2.3-.6 2.7-.4 1.6-1.6 3.2-2.3 4.6-.6 1.3-1.3 2.5-2.1 3.5-2.5 2.6-5.4 5-7.2 8.2-.4.7-3 4.3-2.6 5 .6.7.9 1.7.7 2.7-.2.8.1 1.7.7 2.3 1.1 1.5.7 3.8.8 5.7-.1 1.5-.9 2.8-2.2 3.6-.6.3-1.9.6-2.4 1.1l-1.8 2.1c-.5.6-1.2.9-.9 1.8.2.5 1.1 1.8 1 2.4s0 2.3-.3 2.9-1.9.9-2.4 1.1c-.9.4-.7.8-.8 1.9.1.9 0 1.7-.3 2.6-1 1.6-2 3-3.2 4.5-.6.7-1.4 1.2-2.1 1.8-.4.3-1.2 1.3-1.7 1.4l-5.5 1.2-2.5.5c-.4.1-1.2-1-1.5-1.3-1-.9-1-.9-.8-2.3.1-.5-.6-1.5-.8-2-.4-1.1-.9-2.1-1.3-3.2-.3-.6-1-1.1-1.5-1.6s-.3-1.8-.4-2.2l-.6-3.6c-.4-1.5-1-3-1.8-4.4-.5-1-1-1.9-1.4-2.9-.2-.4.1-1.2.1-1.6.3-2.1.4-4 1.4-5.8s.4-3.1 0-4.9c-.5-2-.9-3.9-1.4-5.8-.1-.6-.9-1.3-1.3-1.7l-2-2.7c-.4-.5-.1-1.1 0-1.7.1-1.2.3-2.4.4-3.6.1-1 .2-1.1-.4-1.9s-.6-1-1.7-1c-.6 0-1.9.4-2.3-.1l-1.9-2.3c-.3-.3-4.1.3-4.6.5l-2.7 1.4c-.7.4-1 .2-1.8 0-.7-.3-1.4-.4-2.1-.2l-3 1.1c-.5.2-1-.5-1.4-.8l-2.9-2.1c-1.1-.6-1.9-1.5-2.6-2.6l-3.8-6.4-1.2-2.1c-.2-.3.5-1.5.6-1.8.2-.6.8-1.6.7-2.2l-.7-3c-.3-.8-.5-1.7-.6-2.6.2-.5.5-1 .8-1.4 1.2-2.1 2.4-4.2 3.5-6.4.8-1.5 1.8-1.9 3.2-2.8.7-.5 1.1-.5 1.2-1.4.2-1.1.4-2.2.5-3.4.2-1.3 2.8-1.6 3.4-2.9.4-.9.5-2.1 1.4-2.4.2-.1.9 1.2 1.6 1 .3-.1 1.1-.4 1.4-.2s.8.6 1 .5c.7-.4 1.4-.9 2.2-1.3 1.4-.7 3-1.2 4.5-1.4.5-.1.9-.2 1.4-.1.4.2.7.3 1.1.4.4 0 .7-.4 1.1-.5h1c.9.2 1.8.1 2.6-.3.7-.4 1.4.1 2.1.4-.5 1.2-.6 1.2 0 2.4.3.5-.8 1.3-1.2 1.7.6.5 1.3 1.5 2 1.7l3.8 1c1 .2.7 1.3 1.6 1.7s1.6.2 2.4.8c1.1.8 1.7 1 2.4-.4.2-.3-.4-.8-.2-1.1s.4-1 .7-1.1c1-.4 2-.5 3-.2.3.1 0 .6.4.7l1.7.4c.5.1.5.3.7.8.1.2.6-.3.8-.2l2.7.8c.7.3 1.5.3 2.1-.2 1-.5 1.1-.7 2.2-.2 1.2.6 3.1.4 3.7-1.1.3-.9 1.8-3.5 1.5-4.7-.7-.1-1.4-.2-2.2-.3-.2.2-.2.5-.1.7-.2.1-2.8.8-2.2-.4.2-.4 1.1-.2 1.4-.1.2 0 .4-.1.6-.2-4.3-.6-8.7-1.2-13.1-1.7v.1c-.3 0-.5-.1-.8-.2-2.9-.3-5.9-.6-8.8-.9 0 .1 0 .1.1.2.3.6-.9.8-1.1.3s-.7-.6-1.2-.8q-8.4-.75-16.8-1.2c-.2.3-.5.6-.3.9-.3.1-.9.1-1.1.3s-.4.9-.7 1q-1.2.15-2.4 0c-.7 0-1.1.8-1.7 1s-1.4-1-.8-1.4c-.6.3-.9-.8-1.7-.3-.6.4-1.1-.2-1.6.2.1-.4.2-.9.2-1.4 0-.3 0-.5-.1-.8v-.1c-.1 0-.2.1-.3 0l-3.9-.1c-25.9-.9-51.8.4-77.5 3.9l-.4.1c.4 0 1.2-.1 1.1.5 0 .3-1 .3-1.2.3.1.1.2.2.4.3-.2.1-.3.2-.6.2.2.6.6.1.9.3l-.8.4c-.2.1-.5-.2-.6-.1s-.6.9-.8 1.2-.7.1-1 .5c-.2.4-.5.7-.9 1-1 .5-1.7 1.4-2.1 2.4-.2.8-.2 1.7.2 2.4q.75 1.65 1.2 3.3c.2.6.3 2.2-.1 2.6s-.6.8-1 .2c-.1-.2-.9-.8-.9-.9-.1-.5-.3-.9-.5-1.3-.2-.5-.5-.8-.3-1.3l-.3.2c-.2-.7.5-1.8-.3-2.3s-1-1.3-1.8-1.1c-.4.1-.8.4-1.2.2-.4-.3-.7-.6-1.2-.8-.7-.2-1.8.7-2-.4-.1 1-2.3.3-3 .8.4 0 2.1.3.9.9.1.1.8.3.8.4.1.2-.1.4-.3.5h-.2c.2-.5-.5-.6-.8-.8.1.3-.1.4-.1.7-.3-.6-.6 0-1-.3s-.8-.8-1.4-.6c-.3.1-.8-.2-1.1-.3-.6-.2-1.6.5-2.2.7-1 .4-3.3 2.1-3.3 3.5 0 .4.6.9.6 1.3-.1.3-.2.7-.3 1-.3.8-.5 1.5-.5 2.4-.1 1.8.4 3.6 1.4 5.1.7 1 .9 1.7 2 2 .2.1.6.6.8.6.4-.2.9-.3 1.3-.5l1.2-.3c.3 0 .6.4.7.3.2-.1.4-.1.6-.3.1-.1-.1-.4 0-.5.4-.2.6-.6.7-1 .2-.9.2-1.9 1.1-2.2.6-.2 1.3-.4 2-.4.5.1 2-.2 1.5.9-.2.4-.8 1.7-1.1 1.8.2.1.1.2.4.2-.1.1-.2.3-.4.4l.1.1.2-.1c-.2.5-.3 1-.4 1.6-.2-.2-.3-.6-.3-.9-.1.2-.3.4-.4.6.7 0-.1 1.3.1 1.8s-.5 1.2-.8 1.5c1 .2 2 .2 3 .2.4.1.7-.3 1.1-.2.5 0 1 .1 1.5.2.9.3 1.5 1.1 1.3 2.1-.1.7-.2 1.3-.3 2-.1.4-.4.7-.4 1.1-.2 1.8 2 4.8 3.6 4.1 1-.4 1.5-.8 2.6-.5.9.3 1.7.9 2.2 1.7-.1-1.3 1.6-3 2.2-4.1.2-.3 1.4-.5 1.7-.6l2.6-.9c.8-.3 2.2.4 3 .6l6.2 1.4c1.1.3 2.2.3 3.1 1.1l4.8 4.6c1 1 3.2 1 4.5 1.3s2.1 2.3 2.9 3.3l2.3 3c.2.2.6 1.1.9 1.1l5 1.8 5 1.8c1.4.5 2.8 2 4 2.9.2 0 1.8 0 1.8.2l.5 2.2c.4 1.6.4 1.6-.5 2.8l-3.2 4.7c-.6.6-1 1.4-1.2 2.2-.2 2.3-.3 4.6-.5 6.9-.1 1.5-1.7 3.1-2.5 4.3-.4.5-.6 1.4-1.2 1.4s-2-.2-2.5.2l-4.5 3.1c-.3.2-.3 2.5-.3 2.9s0 1.3-.3 1.7l-3.8 4.8-3.4 4.4c-.3.3-3.9-1.2-4.4-1.4-.3 1.2 1.7 1.4 2 2.4.2.7.4 1.3.4 2-.1.5-.8 1.1-1 1.5-.8 1.1-1.8 1.1-3 1.4-1 .3-2 .3-2.9 0 .2.8.4 1.1.1 1.8-.2.5 0 1.2-.2 1.4-1.2.8-1.9.5-3.1-.1q-.15 1.05 0 2.1c.1.4.8 1.2.6 1.6-.4.8-.8 1.6-1.1 2.5s-.5.7-1.3.9c-.1 0-.2.1-.3.1 58.9 45.3 143.4 34.3 188.7-24.6 7.6-9.9 13.8-20.8 18.4-32.5-1-1-2-2-2.9-3-.5-.5-1-1.1-1.4-1.7-.3-1-.7-1.9-1.3-2.8-.2-.2-.6-.1-.7-.5-.1-.6-.3-1.1-.4-1.6-.2-.9-1.4-.7-1.5-1.7s-1.1-1.1-1.6-1.5c-.2-.2-1.5-1.8-1.2-2.1s1.8.4 2.1.4c1.1.1.9.5 1.5 1.3.5.6 1.1 1.1 1.8 1.6.6.6 1.4.8 1.9 1.5.3.4.6.3 1 .4.7.1.2.2.6.6s.6 0 .6.7c0 .3.7.3.8.8.1.4-.4.5-.3 1 0 .3.7.4 1 .5s.2.9.3 1.2c.1.5.6.5.1 1 .3-.4.8-.5 1.2-.2l.1-.4c0-.1-.1-.2-.2-.1-.2.1-.4 0-.6-.1.3-.3.4-.9.8-.3 0-.1 0-.2-.1-.4.1 0 .3 0 .3.1 3.5-10.2 5.8-20.8 6.8-31.6l-1.1.4c-.3-.1-.2-.1-.1.5m-104.8-21.5c.5.4 1.1.6 1.8.5.4-.1 1.3.1 1.3.6-1.1.1-2.3-.1-3.3-.4-.1-.3 0-.5.2-.7m-122.2 25.8c-.5-.2-1-.4-1.4-.7.5-.8 1.6-.1 2.2.1.1.1.2.3.3.4-.5-.1-.8.3-1.1.2m2.1-3c-.9-.1-1.9.1-2.8 0 .1-.1.8-.6.8-.8 0-.5-.7-.3-.9-.4-.8-.3-.8-1.1-1.4-1.2s-1.4-.6-2.1-.6c-.4 0-.5-.3-.9-.2-.3.1-.7-.1-.9-.3.2.1.5 0 .6-.1-1.2-1.2-2.7 1.6-3.9.9.6-.4.8-1.2 1.6-1.4.9-.3 1.8-.4 2.7-.4 1.7.3 3.3 1 4.7 2 0-.1.1-.1.1-.2.5.6 1.2 1 2 1 .2 0 .4.5.7.6.4.1.9.4 1.2.7-.5.2-1 .3-1.5.4m7.7 2c-.7 0-1.2.2-1.8.2-.1 0-.2-.4-.6-.1s-.2.9-.4 1c-.5.2-.4-.7-.6-.8s-.7 0-1 0c-1-.1-1.3.3-2-.3-.3-.8 2 .1 2.5-.3-.6-.8-.4-1.1-1.3-1.5.9-.4 1.1-.1 2-.1.3 0 .5-.1.8-.2.3-.2.8.1 1.1.2s.4-.2.7.3c.3.6.3.6.9.7.2.1.8.4.7.6-.6.9-.5.4-1 .3m2.3.5c-.4-1 1-.6 1.6-.5l.2.2c-.3.5-1.5 1.1-1.8.3m141.9 45.8-.6-.6c.2 1.4 0 2.8-.5 4.1l-2.1 7.3c-.2.7-.4 1.3-.6 2 0 .1-1.6.5-1.8.6s-1.8-.4-1.8-.7c-.1-.9-.3-1.7-.5-2.6-.3-.8-.4-1.7-.2-2.6.3-.8 1.2-1.6 1.3-2.4q-.15-1.35-.6-2.7c-.1-.4.3-2 .6-2.1.8-.2 1.7-.5 2.4-.9.8-.4 1.1-1 1.6-1.7.7-.8 1.1-.9 1.1-2 .1-1.5 1.1.1 1.4.5v.1c.4 1.3.9 2.4.3 3.7m73.7-47.8c-.4 0-.5.6-.6 1s-.6.5-.9.6.1.3-.2.3c-.2 0-.5-.1-.7-.2-.6-.4-.5-.5-.5-1.3.8-.5 1.3-1.5 2.4-.9l.1-.3c.4.1.5.4.4.8" class="st2_ecology-88 targetColor" style="fill:#17c964"/><path d="M161.3 229.8c.3.7 1.5.1 1.8-.3l-.2-.2c-.5-.1-2-.5-1.6.5M159.1 228.5c-.6-.1-.6-.1-.9-.7-.2-.4-.3-.1-.7-.3s-.8-.4-1.1-.2c-.3.1-.5.2-.8.2-.9 0-1.1-.3-2 .1.9.4.8.7 1.3 1.5-.5.4-2.8-.5-2.5.3.8.5 1.1.1 2 .3.3.1.7-.1 1 0s.1 1 .6.8c.2-.1.2-.9.4-1s.5.1.6.1c.6 0 1.1-.2 1.8-.2.6 0 .4.5.8-.1.3-.4-.2-.7-.5-.8M303 271.7c-.3-.4-1.3-2-1.4-.5 0 1.2-.4 1.2-1.1 2-.6.7-.9 1.3-1.6 1.7q-1.2.6-2.4.9c-.4 0-.7 1.6-.6 2.1q.45 1.35.6 2.7c-.1.8-1 1.6-1.3 2.4-.2.8-.2 1.7.2 2.6.2.9.4 1.7.5 2.6.1.3 1.5.9 1.8.7s1.8-.6 1.8-.6c.2-.7.4-1.3.6-2l2.2-7.3c.5-1.3.6-2.7.5-4.1l.6.6c.4-1.3-.1-2.4-.4-3.8M376.4 227.2c-1.1-.6-1.6.4-2.4.9 0 .8-.1.9.5 1.3.2.1.4.2.7.2s0-.2.2-.3.9-.1.9-.6.2-1 .6-1c.1-.4 0-.7-.4-.8z" class="st3_ecology-88"/><path d="M348.1 218.6c-19.1-4.2-38-9.6-57.4-12.7-1.5-.2-3.1-.5-4.6-.7.3 1.2-1.2 3.8-1.5 4.7-.6 1.6-2.5 1.8-3.7 1.1-1-.5-1.1-.3-2.2.2-.6.4-1.4.5-2.1.2l-2.7-.8c-.2-.1-.6.5-.8.2-.2-.5-.2-.7-.7-.8l-1.7-.4c-.4-.1-.1-.6-.4-.7-1-.3-2-.2-3 .2-.2.1-.5.9-.7 1.1s.4.8.2 1.1c-.7 1.4-1.3 1.2-2.4.4-.8-.6-1.6-.4-2.4-.8s-.7-1.5-1.6-1.7l-3.8-1c-.7-.2-1.4-1.1-2-1.7.4-.4 1.5-1.2 1.2-1.7-.6-1.1-.5-1.2 0-2.4-.7-.3-1.4-.9-2.1-.4-.8.4-1.7.5-2.6.3h-1c-.4.1-.7.5-1.1.5-.4-.1-.8-.2-1.1-.4-.5 0-.9 0-1.4.1-1.6.2-3.1.7-4.5 1.4-.8.4-1.4.9-2.2 1.3-.2.1-.8-.4-1-.5s-1.1.2-1.4.2c-.7.2-1.4-1.1-1.6-1-.9.3-1.1 1.5-1.4 2.4-.5 1.3-3.2 1.5-3.4 2.9-.2 1.1-.4 2.2-.5 3.4-.1.9-.5.9-1.2 1.4-1.4.9-2.4 1.3-3.2 2.8-1.2 2.1-2.4 4.3-3.5 6.4-.3.4-.6.9-.8 1.4.1.9.3 1.8.6 2.6l.7 3c.1.6-.5 1.6-.7 2.2-.1.3-.8 1.5-.6 1.8l1.2 2.1 3.7 6.4c.6 1.1 1.5 2 2.6 2.6l2.9 2.1c.4.3.9.9 1.4.8l3-1.1c.7-.2 1.5-.1 2.1.2.8.2 1.1.4 1.8 0l2.7-1.4c.5-.2 4.3-.9 4.6-.5l1.9 2.3c.4.6 1.7.1 2.3.1 1.1-.1 1 0 1.7 1s.6.9.4 1.9c-.1 1.2-.3 2.4-.4 3.6-.1.6-.3 1.2 0 1.7l2 2.7c.3.5 1.1 1.2 1.3 1.7.5 2 .9 3.9 1.4 5.8.4 1.8 1 3.2 0 4.9s-1.1 3.8-1.4 5.8c-.1.4-.3 1.2-.1 1.6.5 1 .9 1.9 1.4 2.9.8 1.3 1.4 2.8 1.8 4.3l.6 3.6c.1.4.1 1.9.4 2.2s1.2 1 1.5 1.6c.4 1.1.9 2.1 1.3 3.2.2.5.8 1.5.8 2-.1 1.4-.2 1.4.8 2.3.3.3 1.1 1.4 1.5 1.3l2.5-.5 5.5-1.2c.5-.1 1.3-1.1 1.7-1.4.7-.6 1.5-1.1 2.1-1.8 1.1-1.4 2.2-2.9 3.2-4.5.2-.8.3-1.7.3-2.6.1-1.1-.1-1.5.8-1.9.5-.2 2.1-.6 2.4-1.1s.2-2.2.3-2.9-.8-1.9-1-2.4c-.3-.8.3-1.1.9-1.8l1.8-2.1c.5-.5 1.8-.8 2.4-1.1 1.3-.7 2.1-2.1 2.2-3.6-.1-1.9.3-4.2-.8-5.7-.6-.6-.9-1.5-.7-2.3.2-1 0-1.9-.7-2.7-.4-.6 2.2-4.2 2.6-5 1.9-3.2 4.7-5.6 7.2-8.2.9-1.1 1.6-2.3 2.1-3.5.8-1.4 2-3 2.3-4.6.1-.4.8-2.4.6-2.7-.3-.6-1.4-.1-1.8 0l-6.1 1.6c-.6.1-1.4-1.4-2.2-1.6 1.1-1.1-.3-2-1-2.8l-1.3-1.5c-.3-.3-1.4-.3-1.5-.6-.3-1.3-.8-2.5-1.4-3.7-.4-.5-.9-1-1.4-1.4-.3-.3-.3-1.2-.4-1.7-.1-.8-.2-1.6-.4-2.4-.1-.4-.8-1-1.1-1.3-.7-.7-.5-1.8-1-2.7l-2.3-4.7c-.4-.8-1.5-2.2-.9-3 .5 1.1 1.2 2.2 2 3.1l.8-2.5-.3 2.1c.7-.2 1 .8 1.3 1.3.6 1.1 1.2 2.2 1.9 3.4.3.5.8.8 1.1 1.2.5.8.9 1.6 1.1 2.5.1.6.1 2.3.7 2.5 1 .4 1.1.5 1.6 1.5 1 1.4 1.8 3 2.2 4.6l.7 3.5c.2 1.2.3.9 1.4.9.7 0 .9-.8 1.5-.9.9-.2 1.8-.5 2.7-.7.4-.1.8 0 1-.4s.2-.5.6-.6c1-.4 2.1-.8 3.1-1.1.6-.2.5-1.1 1.1-1.4l1.4-.6c.3-.1.8.2 1.1.1s.4-1.2.7-1.4l1.9-.9c.6-.3.9-.2.9-.9s.2-1.4.5-2c0 .2.2.4.2.6.4-.5 1.7-1.5 1.7-2.1s.3-1-.3-1.1c-.4-.1-.6-.9-.8-1.2s-.7-.3-1.1-.4c-.4-.3-.9-.6-1.3-.9-.7-.5-.5-1.9-.5-2.7-.7.8-1.5 2.2-2.5 2.8s-2.6.4-3.5.4c.1-1.1 0-2.2-.5-3.2l-.3 2c-.8-1.5-1.5-3-2.4-4.4-.2-.4-1.4-1.8-1.1-2.2 1-1.1.9-1.2 2.3-1 .8.1.9 1.1 1.3 1.9.2.8.9 1.5 1.7 1.8.6.3 1 1.1 1.7 1.2.9.3 1.8.2 2.7-.1 1.2-.4 1-.1 1.7 1.1.3.7 1.1.6 1.8.8 1.5.3 3 .9 4.6.8.7-.1 4.8-1 5.1-.4s.6 1.8 1.1 2.1c.7.6 1.5 1 2.4 1.4.3 0 .7 0 1-.1-.1.8-1.2.7-1.8.8.5.6 1.4 2 2.2 2.1s.7.1 1.1-.5l1.2-1.7c.1 1.9.1 3.9.2 5.9 0 .7 0 1.3.1 2 .3.9.7 1.8 1.1 2.6 1.4 3.1 2.7 6.1 4.2 9l1.7-1.1c.5-.3.4-1 .5-1.6.6.6.9.8.9 1.7s0 1.8.1 2.7c.2 2.1 2.9.8 2.2-.8-.3-.8-.7-1.6-1.2-2.3-.6-.7-1-1.5-1.1-2.4-.2-.7.4-1.7.5-2.4.1-.8.1-1.7 0-2.6 0-.9-.3-1.4.4-1.8.7-.2 1.4-.6 2-1 1.4-1.4 2.8-2.8 4.1-4.2l1.5-1.5c.2-.2-.1-.9 0-1s.7-.1.8-.1l3-.4c.6-.1 1.2-.8 1.7-1.1.5 1.1.8 2.4 1.7 3.2s1.4 2 2 3.3c.2.4-.2 1.4-.2 1.8-.1.9-.2.9.6 1.1s.8.2 1.3-.4l1.3-1.6q1.05 2.85 1.5 6c.2 1.1.2 2.2.2 3.4 0 .6-.6 2.7-.2 3.1l2.4 2.5c.5.6.8 2.3 1 3.1.1.9.6 1.6 1.3 2.2.7.8 1.7 1.3 2.7 1.6-.4-.7-.7-1.5-.9-2.2-.2-.8.1-1.9-.2-2.6-.4-.6-.8-1.2-1.4-1.6-.5-.4-1.7-1-1.9-1.6-.1-.4-.5-2.5-.8-2.5-.6 0-.6.1-.7-.5-.1-.4-.1-.7 0-1.1.4-.8.6-1.6.8-2.5.1-1.4-.1-1.6 1.2-1.7l-.1 1c1.2.1 2.4.7 3.1 1.7.5.6 1.1 1.2 1.7 1.8.4.4-.4 1.3.2 1.9 1.7-1.3 3.4-2.7 5-4.2.6-.5.1-2.3.1-3.1 0-1.2-.5-1.6-1.2-2.6l-1.8-2.4-1.1-1.8c-.1-.2.4-1.3.4-1.5.2-.8 1.7-1.6 2.4-2.1.8-.4 1.9-.3 2.6.3-.2 0-.4.2-.6.3.1.2.3 1.1.5 1.2.6.3.6-.4.6-.8-.1-.6-.2-.6.3-.7l1.1-.4c0-.2.5-13.2.6-13.4-10.6-1.3-21.1 9.3-30.7 7.2" class="st3_ecology-88"/><path d="M231.8 200.1v.1c0 .3.1.5.1.8 0 .5-.1.9-.2 1.4.6-.4 1 .1 1.6-.2.8-.4 1.1.6 1.7.3-.6.4.3 1.6.8 1.4s1-1.1 1.7-1q1.2.15 2.4 0c.2 0 .5-.7.7-1s.8-.3 1.1-.3c-.1-.3.1-.6.3-.9-3.4-.3-6.8-.4-10.2-.6M151.6 226.1c-.4-.1-.5-.6-.7-.6-.8 0-1.5-.4-2-1 0 .1-.1.1-.1.2-1.4-1-3-1.7-4.7-2-.9 0-1.9.1-2.7.4-.8.2-1 .9-1.6 1.4 1.2.6 2.7-2.2 3.9-.9-.2.1-.4.2-.6.1.2.3.6.4.9.3.4-.1.4.2.9.2.7 0 1.3.5 2.1.6s.7.9 1.4 1.2c.2.1.9-.1.9.4 0 .2-.6.6-.8.8.9.2 1.9-.1 2.8 0 .5-.1 1-.3 1.5-.4-.4-.3-.8-.5-1.2-.7M147.8 229.5c.4.3.9.6 1.4.7.3.1.6-.4 1.1-.2-.1-.2-.2-.3-.3-.4-.6-.2-1.7-.8-2.2-.1M369.2 257.8c.6-.6 0-.5-.1-1 0-.2-.1-1.1-.3-1.2s-.9-.2-1-.5c-.1-.5.4-.6.3-1-.1-.6-.8-.5-.8-.8 0-.6-.2-.3-.6-.7s.1-.4-.6-.6c-.4-.1-.7 0-1-.4-.5-.7-1.2-.9-1.9-1.5-.6-.5-1.2-1-1.8-1.6-.6-.8-.4-1.2-1.5-1.3-.3 0-1.9-.6-2.1-.4s1 2 1.2 2.1c.5.4 1.5.6 1.6 1.5s1.2.8 1.5 1.7c.1.6.3 1.1.4 1.6.1.4.5.2.7.5.5.9 1 1.8 1.3 2.8.4.6.8 1.2 1.4 1.7.9 1 1.9 2 2.9 3 .5-1.4 1.1-2.8 1.6-4.2-.4-.1-.9-.1-1.2.3M274.4 205.4c0-.5-.9-.6-1.3-.6-.6.1-1.3-.1-1.8-.5l-.3.6c1.1.4 2.3.6 3.4.5" class="st3_ecology-88"/><path d="M370.6 256.5c-.4-.6-.5 0-.8.3.2.1.4.2.6.1.1 0 .1.1.2.1l.3-.9c-.1-.1-.2-.1-.3-.1-.1.3-.1.4 0 .5M246.9 198.4c-.4-.8-.7-.4-1.4-.1l.7.6zM199.5 261c0-.2-1.6-.2-1.8-.2-1.2-.9-2.6-2.4-4-2.9l-5-1.8-5-1.8c-.3-.1-.7-.9-.9-1.1l-2.3-3c-.8-1-1.7-3-2.9-3.3s-3.5-.3-4.5-1.3l-4.8-4.6c-.9-.8-2-.8-3.1-1.1l-6.1-1.5c-.8-.2-2.2-.9-3-.6l-2.6.9c-.3.1-1.5.3-1.7.6-.6 1-2.2 2.8-2.2 4.1-.5-.8-1.3-1.4-2.2-1.7-1.1-.3-1.6.1-2.6.5-1.6.7-3.9-2.3-3.6-4.1.1-.4.4-.7.4-1.1.1-.7.2-1.3.3-2 .1-.9-.4-1.8-1.3-2.1-.5-.1-1-.2-1.5-.2-.4-.1-.7.3-1.1.2-1 0-2-.1-3-.2.3-.3 1-1.1.8-1.5s.6-1.8-.1-1.8c.1-.2.2-.4.4-.6-.1.3 0 .7.3.9.1-.5.2-1.1.4-1.6l-.2.1-.1-.1c.1-.1.3-.2.4-.4-.4 0-.3-.1-.4-.2.3 0 .9-1.3 1.1-1.8.5-1.1-1-.8-1.5-.9-.7 0-1.4.2-2 .4-.9.4-.8 1.4-1.1 2.2-.1.4-.4.8-.7 1-.1.1.1.4 0 .5l-.6.3c-.2.1-.4-.3-.7-.3q-.6 0-1.2.3c-.6.3-.9.3-1.3.5-.2.1-.6-.5-.8-.6-1.1-.3-1.3-1-2-2-1-1.5-1.5-3.3-1.4-5.1.1-.8.3-1.6.5-2.4.1-.3.2-.7.3-1 0-.4-.6-.9-.6-1.3 0-1.4 2.3-3.1 3.3-3.5.6-.2 1.6-.9 2.2-.7.3.1.8.4 1.1.3.6-.2.8.2 1.4.6s.7-.4 1 .3c0-.2.1-.4.1-.7.3.2 1 .4.8.8.2.1.4-.1.5-.3v-.2c0-.1-.7-.4-.8-.4 1.2-.6-.4-.8-.9-.9.6-.5 2.8.2 3-.8.2 1.1 1.3.2 2 .4.4.2.8.5 1.2.8.4.2.8-.1 1.2-.2.8-.2 1.1.6 1.8 1.1s.1 1.6.3 2.3l.3-.2c-.1.6.1.9.3 1.3s.4.9.5 1.3c0 .1.7.7.9.9.4.6.7.1 1-.2s.3-2 .1-2.6q-.45-1.65-1.2-3.3c-.4-.7-.4-1.6-.2-2.4.4-1 1.1-1.9 2.1-2.4.3-.3.6-.6.9-1s.9-.3 1-.5.5-1.1.8-1.2.4.2.6.1l.8-.4c-.4-.2-.7.3-.9-.3.3 0 .4-.1.6-.2-.1-.1-.2-.2-.4-.3.2 0 1.2 0 1.2-.3.1-.7-.7-.5-1.1-.5l.4-.1c-13.8 1.9-27.4 4.7-40.9 8.4v.1c0 1.5 0 2.9.1 4.4.2.2.3.4.5.6s.6.6.5.8-.3.8-.1.9l2.4 2.2c.5.4.9.9 1.2 1.4s1.5 1.8 1.3 2.4c-.3 1-.7 1.4 0 2.1l2.2 2.3c.4.3.9.4 1.3.5l3.4 1.4c1.4.6 2.9 1.6 4.4 1.2.7-.2 1.4-.8 2-.2l2.5 2.5c.9.9 3 1 4.2 1.4 1.6.4 2.2 1.6 3.3 2.9.4.5.3 1.3.6 1.9.6.6 1.4 1.2 2.2 1.6l.9.7c.2.1.4-.2.6-.1.5.1 1.5 1 1.7.5.4 1 .4.9 1.3.5-.1-.2-.6-.8-.4-.9.3-.3.6-.6 1-.8.5-.3.5-.3 1 0 .7.4.7.3.5 1.1-.1.6 1.3 1.3 1.2 1.9-.1.2.1 1 .1 1-.4.4-.1.6 0 1.1.3 2.2-.7 3.1-1.9 4.7l-1.6 2.1c-.3.7-.5 1.5-.6 2.3-.3 1.1-1.3 3.2-.7 4.3 1 1.8 1.9 3.6 2.9 5.4 1.2 2.2 2.3 4.3 3.5 6.5q.6 1.5 1.8 2.4c.9.7 1.9 1.3 2.8 2 .5.3 1.6.8 1.9 1.3.2.8.3 1.6.3 2.5.2.9.3 1.9.4 2.8q-.15 1.65-.6 3.3c-.5 2.4-.9 4.9-1.4 7.3-.8 4-1.5 8-2.3 12.1-.3 1.6-.5 3.3-.6 4.9q4.35 4.05 9 7.5c.1-.1.2-.1.3-.1.8-.2 1-.1 1.3-.9s.8-1.6 1.1-2.5c.2-.4-.5-1.2-.6-1.6q-.15-1.05 0-2.1c1.2.6 1.9 1 3.1.1.3-.2.1-.9.2-1.4.3-.7.1-1-.1-1.8 1 .3 2 .3 2.9 0 1.2-.3 2.2-.3 3-1.4.3-.4.9-1.1 1-1.5 0-.7-.2-1.4-.4-2-.2-1.1-2.3-1.2-2-2.4.6.2 4.2 1.7 4.4 1.4l3.4-4.4 3.8-4.8c.3-.4.2-1.2.3-1.7s0-2.7.3-2.9l4.5-3.1c.5-.4 1.9-.1 2.5-.2s.9-.9 1.2-1.4c.8-1.2 2.4-2.8 2.5-4.3.2-2.3.3-4.6.5-6.9.2-.8.6-1.6 1.2-2.2l3.2-4.7c.9-1.3.8-1.2.5-2.8zM110.1 222.3c0-.4-.3-.8-.6-1.1 0 .5.1 1.1.1 1.6.2.1.5-.1.5-.5M253 197.2c0 .2-.3.5-.3.7s.3.3.3.4c-.1.6-.6.6-.1 1.1s.7.4.8-.2c0-.3.5 0 .6-.6s.2-1.2.2-1.9c.1-1.3-1.3-.5-1.6-.3l-.4-.1c-.3.7.4.5.5.9" class="st3_ecology-88"/><path d="M279.4 309.9c-54.1-10.5-92-56.8-105.8-108.2 0-.1-.1-.3-.1-.4-21.9 1.7-43.6 5.4-64.8 11.1 0 74.3 60.3 134.4 134.5 134.4 35.6 0 69.8-14.2 95-39.3-19.2 5.3-39.3 6.1-58.8 2.4" class="st4_ecology-88"/><ellipse cx="243.7" cy="208.8" rx="134.5" ry="56.4" style="fill:#84ce41"/><linearGradient id="SVGID_00000019638170370667383430000016876671160448228526_-ecology-88" x1="226.957" x2="213.257" y1="676.779" y2="684.239" gradientTransform="translate(0 -498)" gradientUnits="userSpaceOnUse"><stop offset="0" style="stop-color:#00a99d"/><stop offset=".98" style="stop-color:#84ce41;stop-opacity:0"/></linearGradient><path d="M216.5 190.3c4.8-2.8 5.6-3.5 10.1-6.7l-4-7.1-16.3 7.7c2.9 2.4 7.3 3.9 10.2 6.1" style="opacity:.68;fill:url(#SVGID_00000019638170370667383430000016876671160448228526_)"/><path d="M221.6 140.6h3.2c1 0 1.7.8 1.7 1.7v41.2c0 1-.8 1.7-1.7 1.7h-3.2c-1 0-1.7-.8-1.7-1.7v-41.2c0-.9.7-1.7 1.7-1.7" class="st7_ecology-88"/><path d="M239.9 149.7c-1.6-6.7-8.4-36.4-20.7-27.7-6.3 4.5-8 11.5-10.5 18.3-2.1 5.7-3.8 11.6-3.9 17.7-.2 12.4 12.4 13.9 22 13.8 5.5 0 13.4-3.3 14.7-9.3.8-3.6-.6-7.9-1.3-11.5-.1-.4-.2-.9-.3-1.3" class="st8_ecology-88"/><path d="M240.4 151c-.1-.4-.2-.9-.3-1.3-1.4-6-6.9-29.8-16.6-29.3 2.9 12.6 7.1 25.9 4.9 38.8-.7 4.5-2.5 8.8-5.1 12.5 1.3.1 2.6.1 3.8.1 5.5 0 13.4-3.3 14.8-9.3.7-3.6-.7-7.9-1.5-11.5" class="st9_ecology-88"/><linearGradient id="SVGID_00000018195389384339172660000007490772561006551444_-ecology-88" x1="145.615" x2="138.095" y1="696.268" y2="701.108" gradientTransform="translate(0 -498)" gradientUnits="userSpaceOnUse"><stop offset="0" style="stop-color:#00a99d"/><stop offset=".98" style="stop-color:#84ce41;stop-opacity:0"/></linearGradient><path d="M139.4 208.5c3.5-2 6.9-4.3 10.1-6.7l-3.9-7.1-16.3 7.7c2.8 2.4 7.2 3.8 10.1 6.1" style="opacity:.68;fill:url(#SVGID_00000018195389384339172660000007490772561006551444_)"/><path d="M144.5 158.8h3.2c1 0 1.7.8 1.7 1.7v41.2c0 1-.8 1.7-1.7 1.7h-3.2c-1 0-1.7-.8-1.7-1.7v-41.2c0-1 .7-1.7 1.7-1.7" class="st7_ecology-88"/><path d="M162.8 167.9c-1.6-6.7-8.4-36.4-20.7-27.7-6.3 4.5-8 11.5-10.5 18.3-2.1 5.7-3.8 11.6-3.9 17.7-.2 12.4 12.4 13.9 22 13.8 5.5 0 13.4-3.3 14.7-9.3.8-3.6-.6-7.9-1.3-11.5z" class="st8_ecology-88"/><path d="M163.4 169.2c-.1-.4-.2-.9-.3-1.3-1.4-5.9-6.9-29.9-16.6-29.3 2.9 12.6 7.1 25.9 4.9 38.8-.7 4.5-2.5 8.8-5.1 12.5 1.3.1 2.6.1 3.8.1 5.5 0 13.4-3.3 14.7-9.3.7-3.7-.7-7.9-1.4-11.5" class="st9_ecology-88"/><linearGradient id="SVGID_00000097461554060112285830000015820588474313365693_-ecology-88" x1="186.827" x2="173.577" y1="733.874" y2="742.444" gradientTransform="translate(0 -498)" gradientUnits="userSpaceOnUse"><stop offset="0" style="stop-color:#00a99d"/><stop offset=".98" style="stop-color:#84ce41;stop-opacity:0"/></linearGradient><path d="M176.1 250.8c6.1-3.6 7.1-4.5 12.9-8.5l-5-9.1-20.8 9.8c3.6 3.1 9.2 4.9 12.9 7.8" style="opacity:.68;fill:url(#SVGID_00000097461554060112285830000015820588474313365693_)"/><path d="M182.2 187.4h5.1c1 0 1.7.8 1.7 1.7v53.4c0 1-.8 1.7-1.7 1.7h-5.1c-1 0-1.7-.8-1.7-1.7v-53.4c-.1-.9.7-1.7 1.7-1.7" class="st7_ecology-88"/><path d="M205.9 199.1c-2-8.6-10.8-46.4-26.4-35.3-8 5.7-10.2 14.6-13.4 23.3-2.6 7.2-4.8 14.8-5 22.6-.2 15.8 15.8 17.7 28 17.6 7.1 0 17.1-4.2 18.8-11.9 1-4.6-.7-10.1-1.7-14.6-.1-.6-.2-1.2-.3-1.7" class="st8_ecology-88"/><path d="M206.6 200.7c-.1-.6-.2-1.1-.4-1.7-1.8-7.6-8.8-38.1-21.2-37.3 3.7 16.1 9.1 33 6.2 49.5-.9 5.7-3.2 11.2-6.6 15.9 1.6.1 3.3.1 4.8.1 7.1 0 17.1-4.2 18.8-11.9 1.1-4.6-.6-10.1-1.6-14.6" class="st9_ecology-88"/><linearGradient id="SVGID_00000029036765628424590520000005809485711694725304_-ecology-88" x1="281.484" x2="272.804" y1="677.769" y2="682.669" gradientTransform="translate(0 -498)" gradientUnits="userSpaceOnUse"><stop offset="0" style="stop-color:#00a99d"/><stop offset=".98" style="stop-color:#84ce41;stop-opacity:0"/></linearGradient><path d="M274.7 189.5c3.5-2 6.9-4.3 10.1-6.7l-3.9-7.1-16.3 7.7c2.9 2.4 7.3 3.8 10.1 6.1" style="opacity:.68;fill:url(#SVGID_00000029036765628424590520000005809485711694725304_)"/><path d="M279.9 139.7h3.3c1 0 1.7.8 1.7 1.7v41.2c0 1-.8 1.7-1.7 1.7h-3.3c-1 0-1.7-.8-1.7-1.7v-41.2c-.1-.9.7-1.7 1.7-1.7" class="st7_ecology-88"/><path d="M298.1 148.9c-1.6-6.7-8.5-36.4-20.7-27.7-6.3 4.5-8 11.5-10.5 18.3-2.1 5.7-3.8 11.6-3.9 17.7-.2 12.3 12.4 13.9 22 13.9 5.5 0 13.5-3.3 14.8-9.3.8-3.6-.5-7.9-1.3-11.5-.2-.6-.3-1-.4-1.4" class="st8_ecology-88"/><path d="M298.7 150.2c-.1-.4-.2-.9-.3-1.3-1.4-6-6.9-29.9-16.6-29.3 2.9 12.6 7.1 25.9 4.9 38.8-.7 4.5-2.5 8.8-5.1 12.5 1.3.1 2.6.1 3.8.1 5.5 0 13.5-3.3 14.8-9.3.6-3.7-.7-8-1.5-11.5" class="st9_ecology-88"/><linearGradient id="SVGID_00000050641165465733517100000013187774217196550295_-ecology-88" x1="294.142" x2="284.782" y1="739.553" y2="744.123" gradientTransform="translate(0 -498)" gradientUnits="userSpaceOnUse"><stop offset="0" style="stop-color:#00a99d"/><stop offset=".98" style="stop-color:#84ce41;stop-opacity:0"/></linearGradient><path d="M286.5 250.8c3.5-2 6.9-4.3 10.1-6.7l-3.9-7.1-16.3 7.7c2.8 2.4 7.2 3.8 10.1 6.1" style="opacity:.68;fill:url(#SVGID_00000050641165465733517100000013187774217196550295_)"/><path d="M291.6 201.1h3.3c1 0 1.7.8 1.7 1.7V244c0 1-.8 1.7-1.7 1.7h-3.3c-1 0-1.7-.8-1.7-1.7v-41.2c0-1 .8-1.7 1.7-1.7" class="st7_ecology-88"/><path d="M309.9 210.2c-1.5-6.7-8.5-36.4-20.7-27.7-6.3 4.5-8 11.5-10.5 18.3-2.1 5.7-3.8 11.6-3.9 17.7-.2 12.4 12.4 13.9 22 13.8 5.5 0 13.5-3.3 14.7-9.3.8-3.6-.5-7.9-1.3-11.5z" class="st8_ecology-88"/><path d="m310.5 211.5-.3-1.3c-1.4-6-6.9-29.9-16.6-29.3 2.9 12.6 7.1 25.9 4.9 38.8-.7 4.5-2.5 8.8-5.1 12.5 1.3.1 2.6.1 3.8.1 5.5 0 13.5-3.3 14.7-9.3.7-3.7-.7-7.9-1.4-11.5" class="st9_ecology-88"/></g><g id="person_ecology-88"><path id="hand_ecology-88" d="M367.4 150s-10.5.9-12.7 0-9.1-3.4-9.7-1.4 3.5 3 3.5 3-7.1 1.8-9.1 2.4-.9 2.4.7 2.2c0 0-4.1 1.9-2.7 2.8.9.5 2 .7 3 .4 0 0-1.9 1.5.2 2.5 2-.2 3.9-.6 5.8-1.3 0 0-2.4 2.1-1.6 2.6s.5 1.1 7.7-2.6c0 0 14.9-3.3 18.2-3.9" class="st14_ecology-88"/><path d="M386.3 120.7s-4.9 14.9-9 18.9c-2.9 2.8-15.4 7-22.6 9.3.1 4.6 2.1 8.9 4.8 12.7 10.6-2.4 27.8-8.6 32-13.6 6.2-7.3 9-18 9-18z" class="st2_ecology-88 targetColor" style="fill:#17c964"/><g id="person-2_ecology-88"><path d="M386.3 120.7s-4.9 14.9-9 18.9c-2.9 2.8-15.4 7-22.6 9.3.1 4.6 2.1 8.9 4.8 12.7 10.6-2.4 27.8-8.6 32-13.6 6.2-7.3 9-18 9-18z" class="st4_ecology-88"/><linearGradient id="SVGID_00000042718768170825767380000003210275403830554008_-ecology-88" x1="328.921" x2="317.341" y1="692.039" y2="699.379" gradientTransform="translate(0 -498)" gradientUnits="userSpaceOnUse"><stop offset="0" style="stop-color:#00a99d"/><stop offset=".98" style="stop-color:#84ce41;stop-opacity:0"/></linearGradient><path d="M321.1 207.4c6.4-3.8 7.5-4.7 13.6-9l-5.3-9.6-21.9 10.3c3.8 3.3 9.7 5.2 13.6 8.3" style="opacity:.68;fill:url(#SVGID_00000042718768170825767380000003210275403830554008_)"/><path d="M327.4 140.4h5.6c1 0 1.7.8 1.7 1.7v56.6c0 1-.8 1.7-1.7 1.7h-5.6c-1 0-1.7-.8-1.7-1.7v-56.6c0-.9.8-1.7 1.7-1.7" class="st7_ecology-88"/><path d="M352.6 152.7c-2.1-9.1-11.4-49-27.8-37.3-8.4 6-10.8 15.4-14.2 24.6-2.8 7.6-5.1 15.6-5.2 23.8-.3 16.6 16.6 18.7 29.6 18.6 7.5 0 18.1-4.4 19.8-12.5 1.1-4.9-.7-10.6-1.8-15.4z" class="st8_ecology-88"/><path d="M353.4 154.5c-.1-.6-.3-1.2-.4-1.8-1.9-8-9.3-40.2-22.4-39.4 3.9 17 9.6 34.9 6.6 52.2-1 6.1-3.3 11.8-6.9 16.8 1.7.1 3.5.1 5.1.1 7.5 0 18.1-4.4 19.9-12.5.9-4.9-.8-10.7-1.9-15.4" class="st9_ecology-88"/><path d="M358.5 169.8s-10.5.9-12.7 0-9.1-3.4-9.7-1.4 3.5 3 3.5 3-7.1 1.8-9.1 2.4-.9 2.4.7 2.2c0 0-4.1 1.9-2.7 2.8.9.5 2 .7 3 .4 0 0-1.9 1.5.3 2.5 2-.2 3.9-.6 5.8-1.3 0 0-2.4 2-1.6 2.6s.5 1.1 7.7-2.6c0 0 14.9-3.3 18.2-3.9" class="st14_ecology-88"/><linearGradient id="SVGID_00000044169699047053814650000016360894606943989642_-ecology-88" x1="82.012" x2="110.242" y1="811.451" y2="781.431" gradientTransform="matrix(-1 0 0 1 510.81 -498)" gradientUnits="userSpaceOnUse"><stop offset="0" style="stop-color:#007f68;stop-opacity:3.000000e-02"/><stop offset=".99" style="stop-color:#075b5d"/></linearGradient><path d="M410.9 273.3c8.6 3.6 31 14.7 44.5 22.2-4.6 3-9.5 5.1-14.5 7.4s-9.3 5.5-14 8.4c-7.5 4.5-15.9 7.5-22.5 13.1-9.5-8-25.2-20-33.8-26.8-.3 0-3.2-2.9-3-4.6 9.4-4.5 41.4-18.2 43.3-19.7" style="opacity:.63;fill:url(#SVGID_00000044169699047053814650000016360894606943989642_)"/><path d="m421.7 286.1 2.1-1.3v-23.3l-10.2-.4s-.2 9.9-2.6 12.2-8.4.6-9 .8-4.6-1-6.4.9 6.1 7.2 10.3 8.2c2.9.6 5.8.7 8.8.3 0 0 .9-6 2.4-5.4s1.6 6.9 1.6 6.9z" class="st2_ecology-88 targetColor" style="fill:#17c964"/><path d="M431.7 196c-.1-15.4-1.3-29.6-13.6-40.3l-.8 2.8v-.3c-.1-1.4-2.4-1.9-2.6-.4v.5c-.1.5-.1 1-.1 1.5-.5-.5-1.3-.6-1.9-.1l-.1.1c-2.4.8-3.4 4.2-3.4 6.4 0 .7.6 1.3 1.3 1.3s1.3-.6 1.3-1.3c-.1-1 .2-2 .7-2.8.1-.3.2-.5.2-.7v.2c-.1.6-.1 1.3.1 1.9.1.3.3.6.6.8.1.5.3 1 .4 1.5l-3.5 1-5.1 32.5s.7 70.8 2.8 71.4c14.8 4.3 20.9-2.8 20.9-2.8 1-24.1 3.1-48.8 2.8-73.2" class="st17_ecology-88"/><path d="m393.7 304 2.1-1.3v-23.3l-10.2-.4s-.2 9.9-2.5 12.2-8.4.6-9 .8-4.6-1-6.4.9 6.1 7.2 10.3 8.2c2.9.6 5.8.7 8.8.3 0 0 .9-6 2.4-5.4s1.6 6.9 1.6 6.9z" class="st2_ecology-88 targetColor" style="fill:#17c964"/><path d="M397.4 166.2s-9.4 34.8-13.3 65.9c-.9 7.5-8.6 52-8.6 52s12.7 4.6 24.1 1c0 0 13.5-56.9 14.1-58s9.7-37.9 10.7-64.4" class="st17_ecology-88"/><path d="m396.3 120-5.7 1c-1.1.8-9.7 10.4-10.4 20.2.6 2.6 1.4 5.1 2.4 7.6 1.2 3.4 2.4 6.7 3.8 10 1.5 3.6 3.3 7 5.3 10.3.9 1.4 1.4 2.1 2.3 3.4.8.2 1.7.3 2.5.2 17.4-2.2 24.1-15.9 24-17.3s-7.9-18.9-12.5-29.2c-1.9-4.4-6.8-7-11.7-6.2" class="st2_ecology-88 targetColor" style="fill:#17c964"/><path d="M374.5 108.8s4.9 18.4 12 17.1 10.9-11.8 9.7-15.5-15.8-11.4-21.7-1.6" class="st14_ecology-88"/><path d="M400.3 87.3c-3.5-2.3-8.1-1.8-11 1.3-2.6 2.9-2.9 6.8-2 10.4-4.4-.8-9.4.4-13.9 5.3 0 0-4 5.4-1 8.2s7 .5 10.8-.9 2.8 3.3 4.9 6.5 4 2.9 5.6 2.4 7.2-5.7 3.6-13.8c-.2-.5-.5-1-.8-1.4q1.35-.6 2.7-1.5c2-1.1 3.6-2.8 4.7-4.8 1.7-4.3.2-9.1-3.6-11.7" class="st17_ecology-88"/><path d="M420.4 188.4c-.8 16.6-5.7 32.6-9.9 48.6s-7.7 32-10.7 48.1l1.4-.4c3.1-16.3 6.7-32.5 10.9-48.6 4.1-15.7 8.8-31.4 9.6-47.7 0-.8-1.3-.8-1.3 0" class="st7_ecology-88"/><path d="M380.2 141.1s-4.9 14.9-9 18.9c-2.9 2.8-15.4 7-22.5 9.3.1 4.6 2.1 8.9 4.8 12.7 10.6-2.4 27.8-8.6 32-13.6 6.2-7.3 9-18 9-18z" class="st2_ecology-88 targetColor" style="fill:#17c964"/></g></g></g></svg>