<svg xmlns="http://www.w3.org/2000/svg" xml:space="preserve" id="Layer_1" x="0" y="0" class="illustrations_image" data-imageid="electric-car-20" style="width:188px" version="1.1" viewBox="0 0 500 500"><style>.st2_electric-car-20{fill:#0b096e}.st4_electric-car-20{fill:#ffab31}.st5_electric-car-20{fill:#d7fbff}.st6_electric-car-20{fill:#a8ebef}.st11_electric-car-20,.st9_electric-car-20{opacity:.33;fill:#0b096e;enable-background:new}.st11_electric-car-20{opacity:.5}</style><path id="field_electric-car-20" d="m243 412.6-220-130c-7-3.9-13-10.4-6.2-14.6l220.8-127.3c3.3-2.1 8.4-3.4 11.7-1.4l230.9 134c7 4.1 8.3 15.4 1.2 19.5L272 412.4c-9 5.2-20 5.3-29 .2" style="fill:#cb9bea"/><g id="electric-charging_electric-car-20"><linearGradient id="SVGID_1_-electric-car-20" x1="179.109" x2="247.769" y1="250.49" y2="329.18" gradientTransform="matrix(1 0 0 -1 0 502)" gradientUnits="userSpaceOnUse"><stop offset="0" style="stop-color:#cb9bea;stop-opacity:0"/><stop offset="1" style="stop-color:#43344e"/></linearGradient><path d="m250.1 213.9-81.9 48-23.9-14.3 83.1-54.7" style="fill:url(#SVGID_1_)"/><path d="M156.4 319.2c-1.3 0-2.7-.1-4-.3-7.2-1-19.4-6-21.5-15.1-3-13.1 10.9-18.5 21.1-22.5 1.6-.6 3-1.2 4.4-1.8l.3-.1c7.7-3.3 15.7-6.8 22-12.4 2.3-2.1 3.5-3.9 3.8-5.8.3-2.4-.6-4.9-2.4-6.5-2.6-2.6-6.2-3.5-9.9-4.4-4.3-1.1-8.8-2.3-11.8-6.1-1.7-1.9-2.3-4.5-1.7-7 1.8-6.8 13.1-11.8 20.6-15l.7-.3c11.9-5.2 15.5-20.3 17.3-42.9l2 .2c-1.9 23.3-5.7 38.9-18.5 44.5l-.8.3c-6.7 2.9-17.9 7.8-19.5 13.7-.4 1.9.1 3.8 1.4 5.3 2.5 3.3 6.5 4.3 10.7 5.4 3.9 1 7.9 2 10.8 4.9 2.3 2.1 3.4 5.2 3 8.3-.5 3.1-2.8 5.4-4.4 6.9-6.6 5.9-14.7 9.4-22.6 12.8l-.3.1c-1.3.6-2.8 1.2-4.4 1.8-10.1 3.9-22.6 8.8-19.9 20.2 1.8 7.8 12.7 12.6 19.8 13.6 13.6 1.9 25.2-7 35.9-16.3 1.3-1.1 2.7-2.3 4.1-3.5 5.7-4.7 12.1-10.1 15.6-15.9l1.7 1c-3.7 6.1-10.3 11.6-16.1 16.4-1.4 1.2-2.8 2.3-4.1 3.4-9.9 8.8-20.7 17.1-33.3 17.1" class="st2_electric-car-20"/><path d="m240.7 88.1-9.4-4.4-33.9 19.4v120.7l18.5 10.2 23.4-83.4" style="fill:#4949ad"/><path d="M215.9 152.5V234l34.2-20.1V132zM215.9 152.5l-9.9-44.6 34.7-19.8 9.4 43.9z" class="st2_electric-car-20"/><path d="m234 160.8 8.3-5.5-5.3 15.4 5.3-3.1-13.8 32.7 4.7-20.7-4.7 2.1z" class="st4_electric-car-20"/><path d="m200.2 152.5 12.3 6.7v11l-12.3-6.5z" class="st2_electric-car-20"/><path d="M206.5 159.9s3.7 1.1 2.8 5.9c0 0-11.1 1.4-10.8 14.2 0 0-.8 1.6-5.1 0 0-.1-1.1-16.9 13.1-20.1" class="st5_electric-car-20"/><path d="m213.6 111.6 7 30 22.8-13.6s-6.7-29-7-29-22.8 12.6-22.8 12.6" class="st4_electric-car-20"/><path d="m230.5 109.5-6.1 3.4c-.5.3-.8.9-.7 1.5l3.6 15.7c.2.7.9 1.2 1.7 1 .1 0 .3-.1.4-.2l5.9-3.5c.5-.3.8-.9.6-1.5l-3.4-15.6c-.2-.7-.9-1.2-1.7-1.1 0 .2-.1.2-.3.3" class="st2_electric-car-20"/><path d="M234.3 122.7c-2.2 1.4-4.4 2.7-6.6 4l.6 2.6c.1.6.7.9 1.3.8.1 0 .2-.1.3-.1l4.6-2.7c.4-.2.6-.7.5-1.2zM226.6 121.6l.9 3.8c2.2-1.3 4.4-2.6 6.6-4l-.7-3.3c-2.3 1.1-4.5 2.3-6.8 3.5" class="st6_electric-car-20"/></g><g id="tree_electric-car-20"><linearGradient id="SVGID_00000103244877694515993670000009105845731331691177_-electric-car-20" x1="71.835" x2="99.805" y1="213.746" y2="245.796" gradientTransform="matrix(1 0 0 -1 0 502)" gradientUnits="userSpaceOnUse"><stop offset="0" style="stop-color:#cb9bea;stop-opacity:0"/><stop offset="1" style="stop-color:#43344e"/></linearGradient><path d="M59.3 284.9c1.9-.3 3.4-.3 4.2.6-1.3 13.1 8.1 6.7 12.2 10l3.6-1.5c7.2-7.2 14.4-14.3 21.7-21.4-2.5-1.8-4.9-3.7-7.3-5.6-12 5-23.5 11-34.4 17.9" style="fill:url(#SVGID_00000103244877694515993670000009105845731331691177_)"/><path d="M101.8 272v-56.6H89.5v57.1c4.2 1.3 8.7 1.4 12.3-.5" style="fill:#a83f1e"/><path d="M96.9 215.6v57.9c1.7-.1 3.4-.6 4.9-1.4v-56.6h-4.9z" class="st9_electric-car-20"/><path d="M112.8 220.7c7.7-.4 17.5-3.1 14.6-11.6-1.7-5.1-6.9-9.5-10.2-13.5s-2.6-6.7-6.3-10.6c3.2.1 7.8-.5 8.6-3.6.7-2.8-14.1-19.6-20.5-26.5-1.5-1.6-3.9-1.7-5.6-.4-7.6 6.1-27.1 22.2-24.4 26.9 1.6 2.8 5 3.8 7.9 4-7 7-15 15.8-15.8 25.2-.7 8.1 7.6 9.2 15.3 8.8-5.3 6.5-19.9 25-16.5 30.7 1.8 3 7.4 3.9 10.7 4.6 7.2 1.5 14.6 2.2 21.9 2.1s14.9-.8 21.8-3.3c3.7-1.3 7.7-3.1 10.6-5.9 3.4-3.2 1.5-6.6-.7-9.8-3.9-5.7-7.6-11.4-11.4-17.1" style="fill:#77c457"/><path d="M110.8 185s-9.3-.6-15.8-.4l32.9 27s.9-3.1-4.9-9.6-12.2-17-12.2-17M112.8 220.7H93.6l31.2 26.8s3.4-2.5 1.4-6.2-13.4-20.6-13.4-20.6" class="st11_electric-car-20"/></g><g id="car_electric-car-20"><linearGradient id="SVGID_00000049901349128194743880000016934263629017756550_-electric-car-20" x1="226.55" x2="359.57" y1="138.54" y2="290.99" gradientTransform="matrix(1 0 0 -1 0 502)" gradientUnits="userSpaceOnUse"><stop offset="0" style="stop-color:#cb9bea;stop-opacity:0"/><stop offset="1" style="stop-color:#43344e"/></linearGradient><path d="m378.2 304.4-155.4 88.5-78.5-50L304 235.8" style="fill:url(#SVGID_00000049901349128194743880000016934263629017756550_)"/><path d="m182 307.5 8.6-14.5c9.4-7.3 32.5-24.6 32.5-24.6 6.7-8.4 25.1-26.8 25.1-26.8 13.1-9.6 62.1-35.7 65.8-36.1s16.5 2.4 18.5 2.6 8-3.9 8-3.9c17.8 1.5 35.2 16 43.5 22.4s8.4 16.2 8.4 16.2.9 30.5.4 32.1-5.4 5.1-5.4 5.1.2-17.2-12.3-11.1-15.1 27.1-16.3 28.2-61.9 36.2-75.3 44c.1-3.8-.4-7.7-3.2-10.5-3.3-3.2-8.3-2.8-12.2-1.2-4 1.6-7.5 4.3-9.9 7.9-3.6 4.4-5.3 10.2-6.1 15.7-.1.7-.5 10.2-.6 10.2-32.8 10.7-69.1-28.6-69.8-31.7s.3-24 .3-24" class="targetColor" style="fill:#bd2727"/><path d="m181.9 307.5 8.6-14.4c9.4-7.3 32.5-24.6 32.5-24.6 6.7-8.4 25.1-26.8 25.1-26.8 13.1-9.6 62.1-35.7 65.8-36.1s16.5 2.4 18.5 2.6 8-3.9 8-3.9c17.8 1.5 35.2 16 43.5 22.4s8.4 16.2 8.4 16.2.9 30.5.4 32.1-5.4 5.1-5.4 5.1.2-17.2-12.3-11.1-15.1 27.2-16.2 28.4-61.9 36.2-75.3 44c.1-3.8-.4-7.7-3.2-10.5-3.3-3.2-8.3-2.8-12.2-1.2-4 1.6-7.5 4.3-9.9 7.9-3.6 4.4-5.3 10.2-6.1 15.7-.1.7-.5 10.2-.6 10.2-32.8 10.7-69.1-28.6-69.8-31.7s.2-24.3.2-24.3" class="st9_electric-car-20"/><path d="M207.8 335.8c12.2 7.8 24.8 11.2 46.2 8.3-.4 1.5-1.8 7.5-2 9-.1.7-.5 10.2-.6 10.2-32.8 10.7-69.1-28.6-69.8-31.7-.7-2.8.3-21 .4-23.8 5.8 12.2 7.3 16.2 25.8 28" class="st9_electric-car-20"/><path d="M193.9 328.6s-.2 4.9-.1 5c5.7 4.9 12.1 8.8 19 11.5l.1-4.8c0 .1-11.4-5.5-19-11.7" class="st5_electric-car-20"/><path d="M252.6 242.9c-2.5-2.4-25.2 22.8-26.7 26.2s-3.5 5.6 1.2 10.8 31.3 20.8 36.6 22.1 8.1 4.1 15.3-2.5 18-27.9 18-27.9-31.5-16.3-44.4-28.7" class="st6_electric-car-20"/><path d="M227.4 263.9s-5-4.2-8.4-2.7 4.1 7.3 4.1 7.3z" class="st2_electric-car-20"/><ellipse cx="374.6" cy="287.5" class="st2_electric-car-20" rx="21" ry="14" transform="rotate(-64.201 374.645 287.478)"/><ellipse cx="376" cy="287.5" class="st5_electric-car-20" rx="11.4" ry="7.6" transform="rotate(-64.201 376.022 287.551)"/><path d="M222.8 340.7c-.9-.3-1.8-.8-2.5-1.4-1.3-1.4-.4-3.2.6-4.5 1-1.2 2.4-2.1 3.9-2.4 3.1-.8 6.2-1.4 9.4-1.9 2.1-.3 4.2-.5 6.3-.7 2.3-.3 4.6-.3 6.9.1 2.4.5 1.8 3.6 1 5.2-1.4 2.6-3.9 4.6-6.4 6-1.8 1-3.9 1.7-6 1.8-2.3.1-4.5-.1-6.7-.5-1.6-.3-3.3-.6-4.8-1.1-.6-.2-1.2-.4-1.7-.6M182 307.5s4 7.8 6.3 9.8 3.5.6 3.8-1.3-1.2-22.8-1.5-22.8-6.1 2.7-8.6 14.3M196.7 314c.7.4 1.4.9 2 1.3 4 2.4 7.9 4.8 11.8 7.3l5.9 3.7c1.3.8 4.1 1.8 2.9 3.7-1.4 1.9-3 3.7-4.9 5.2-1.3 1.1-2.3 1.4-3.9.5-2.9-1.7-5.8-3.3-8.6-5-2.2-1.3-4.7-3-5.4-5.6-.7-2.8-1.2-5.6-1.5-8.5-.1-1-.2-2.9 1.2-2.7.1-.1.3 0 .5.1M232.2 355.2c1 .3 1.7 1.2 1.7 2.3 0 2.4-2.2 2.3-3.9 2.4-2.1.1-21.3-6.4-33.7-16.1s-14.6-18-14.6-18l.1-6.4s3.1 13.2 19.4 23c6.7 4 13.8 7.3 21.2 9.9 2.3.8 4.6 1.6 6.9 2.2 1 .2 1.9.4 2.9.7M359.5 235l13.6.8s2 .7.8-2.5-14.3-16.7-31.8-20.7c0 0-24.2-4.2-19.7-2.5 2.5 1 22.3 10.3 37.1 24.9M358.8 257.2c4.4-3.1 8.9-6.3 13.2-9.5-2.5-1.4-5.2-2.2-7.9-2.6q-2.55-.15-5.1 0zM328.9 254c-9.7 4.7-18.3 11.2-25.5 19.2-7.3 8.5-13 18.1-17 28.5-.4 1 .1 2.2 1.2 2.6.6.2 1.2.2 1.7-.2 7.6-4.7 22.6-14.1 33.4-21.1l2.7-1.7v-.2l3-2.2zM354.7 245.6q-6 .9-11.7 2.7c-2.8.9-5.5 1.9-8.2 3l-.4 23.3 19-13.6c.3-.2.6-.5 1-.7z" class="st6_electric-car-20"/><ellipse cx="267.9" cy="347.8" class="st2_electric-car-20" rx="21.7" ry="14.1" transform="rotate(-64.201 267.904 347.787)"/><ellipse cx="269.2" cy="347.8" class="st5_electric-car-20" rx="11.8" ry="7.7" transform="rotate(-64.201 269.166 347.788)"/></g></svg>