<svg xmlns="http://www.w3.org/2000/svg" width="799.662" height="676.74"><g transform="translate(-559.888 -145.501)"><path fill="#d6d6e3" d="M778.723 662.67c18.059 6.932 37.308 17.419 47.062 34.908 9.4 16.859 5.735 36.3-4.5 51.855-12.319 18.716-31.529 31.541-51.5 40.914-22.74 10.673-47.062 17.591-71.416 23.474-12.351 2.984-24.77 5.681-37.189 8.365-2.591.56-3.7-3.42-1.1-3.982 25.045-5.412 50.162-10.841 74.585-18.675 22.6-7.25 45.729-16.536 64.237-31.759 14.973-12.315 29.209-30.3 28.325-50.756-.891-20.618-18.189-35.013-35.144-43.874"/><circle cx="66.509" cy="66.509" r="66.509" fill="#6c63ff" transform="translate(833.71 521.247)"/><path d="M422.519 466.684a66.514 66.514 0 0 0 110.824 70.391 66.515 66.515 0 1 1-110.824-70.391" opacity=".2" style="isolation:isolate" transform="translate(428.592 76.647)"/><path fill="#cbcbcb" d="M900.401 587.754h.183l3.289 188.564h-6.944Z"/><circle cx="80.109" cy="80.109" r="80.109" fill="#6c63ff" transform="translate(935.987 400.168)"/><path d="M642.729 354.38a80.116 80.116 0 0 1-133.486 84.785 80.116 80.116 0 1 0 133.486-84.785" opacity=".2" style="isolation:isolate" transform="translate(432.518 72.393)"/><path fill="#cbcbcb" d="M1015.876 480.278h-.22l-3.962 227.125h8.363Z"/><path fill="#d6d6e3" d="m867.383 405.239 10.877-8.7c-8.45-.932-11.922 3.676-13.343 7.324-6.6-2.741-13.788.851-13.788.851l21.763 7.9a16.47 16.47 0 0 0-5.509-7.375"/><path fill="#6c63ff" d="m839.966 330.171 10.877-8.7c-8.45-.932-11.922 3.676-13.343 7.324-6.6-2.741-13.788.851-13.788.851l21.763 7.9a16.47 16.47 0 0 0-5.509-7.376Z"/><path fill="#d6d6e3" d="m994.05 378.705 10.877-8.7c-8.45-.932-11.922 3.676-13.343 7.324-6.6-2.741-13.788.851-13.788.851l21.763 7.9a16.47 16.47 0 0 0-5.509-7.376Z"/><path fill="#cbcbcb" d="M983.3 707.054s.416-8.721 8.948-7.707M1041.258 707.054s.416-8.721 8.948-7.707M1024.384 707.054s.416-8.721 8.948-7.707M967.776 707.054s-.416-8.721-8.948-7.707M1003.937 707.656s-.416-8.721-8.948-7.707M871.208 775.555s.416-8.721 8.948-7.707M929.166 775.555s.416-8.721 8.948-7.707M912.29 775.555s.416-8.721 8.948-7.707M855.684 775.555s-.416-8.721-8.948-7.707M891.845 776.159s-.416-8.721-8.948-7.707"/><path fill="#3f3d56" d="m1111.258 464.788-1.639-1.272 41.982-54.056h54.906v2.076h-53.89ZM673.863 543.224l-1.37 67.415 41.878 33.912-1.306 1.614-42.666-34.55.01-.507 1.38-67.926ZM840.181 290.435l-1.639-1.272 41.982-54.056h54.906v2.076h-53.89Z"/><path fill="#f1f1f1" d="M717.709 654.094c18.174 9.083 29.238 21.08 29.238 34.238 0 28.346-51.292 51.324-114.564 51.324-27.509 0-52.746-4.347-72.495-11.587 20.976 10.484 51.425 17.086 85.326 17.086 63.271 0 114.564-22.979 114.564-51.324 0-16.019-16.394-30.325-42.069-39.737"/><path fill="#f1f1f1" d="M758.133 673.565c20.507 10.25 32.992 23.786 32.992 38.634 0 31.985-57.877 57.913-129.272 57.913-31.04 0-59.517-4.905-81.8-13.074 23.669 11.83 58.027 19.279 96.28 19.279 71.394 0 129.272-25.929 129.272-57.913-.002-18.078-18.501-34.22-47.472-44.839"/><path fill="#f1f1f1" d="M702.238 662.67c12.8 6.4 20.6 14.851 20.6 24.122 0 19.97-36.137 36.159-80.713 36.159a151.6 151.6 0 0 1-51.074-8.163c14.778 7.386 36.23 12.037 60.114 12.037 44.576 0 80.713-16.189 80.713-36.159-.001-11.288-11.551-21.365-29.64-27.996"/><path fill="#f0f0f0" d="M955.55 342.934a11.59 11.59 0 0 0-9.783-8.131c-.051-.007-.1 0-.149 0a2 2 0 0 0-.2-.046c-10.686-1.381-23.021 3.73-27.475 13.861a11.32 11.32 0 0 0-9.481-4.62 11.55 11.55 0 0 0-10.327 8.324 1.355 1.355 0 0 0 .6 1.482 5.9 5.9 0 0 0 2.441 1.239q2.911.617 5.843 1.13 5.721 1 11.5 1.619a171 171 0 0 0 23.557.89c2.619-.082 5.145-.168 7.544-1.324a11.2 11.2 0 0 0 4.328-3.777 12.74 12.74 0 0 0 1.602-10.647"/><g transform="translate(1229.565 371.876)"><rect width="87.929" height="7.835" fill="#3f3d56" rx="3.918" transform="translate(33.073 6.305)"/><rect width="87.929" height="7.835" fill="#3f3d56" rx="3.918" transform="translate(33.073 35.167)"/><rect width="87.929" height="7.835" fill="#3f3d56" rx="3.918" transform="translate(33.073 61.025)"/><path fill="#6c63ff" d="M0 10.223a10.223 10.223 0 1 1 10.223 10.219A10.234 10.234 0 0 1 0 10.223M0 39.086a10.223 10.223 0 1 1 10.223 10.223A10.234 10.234 0 0 1 0 39.086M0 64.944a10.223 10.223 0 1 1 10.223 10.223A10.234 10.234 0 0 1 0 64.944"/></g><g fill="#3f3d56"><path d="M1224.388 321.023a7.95 7.95 0 0 0-3.809 6.785v1.17h.936v-1.17a7.03 7.03 0 0 1 5.217-6.785Zm114.893-1.17h-110.747a7.964 7.964 0 0 0-7.955 7.955v163.3a7.966 7.966 0 0 0 7.955 7.955h123.063a7.966 7.966 0 0 0 7.955-7.955V337.952Zm19.334 171.257a7.027 7.027 0 0 1-7.019 7.019h-123.062a7.027 7.027 0 0 1-7.019-7.019v-163.3a7.03 7.03 0 0 1 5.217-6.785 7 7 0 0 1 1.8-.234h110.393l19.69 17.58Zm-134.227-170.087a7.95 7.95 0 0 0-3.809 6.785v1.17h.936v-1.17a7.03 7.03 0 0 1 5.217-6.785Z"/><path d="M1359.083 338.57h-12.634a7.964 7.964 0 0 1-7.955-7.954v-10.295a.468.468 0 1 1 .936 0v10.294a7.027 7.027 0 0 0 7.019 7.019h12.634a.468.468 0 1 1 0 .936"/></g><g transform="translate(967.815 197.524)"><rect width="87.929" height="7.835" fill="#3f3d56" rx="3.918" transform="translate(33.073 6.305)"/><rect width="87.929" height="7.835" fill="#3f3d56" rx="3.918" transform="translate(33.073 35.167)"/><rect width="87.929" height="7.835" fill="#3f3d56" rx="3.918" transform="translate(33.073 61.025)"/><path fill="#6c63ff" d="M0 10.223a10.223 10.223 0 1 1 10.223 10.219A10.234 10.234 0 0 1 0 10.223M0 39.086a10.223 10.223 0 1 1 10.223 10.223A10.234 10.234 0 0 1 0 39.086M0 64.944a10.223 10.223 0 1 1 10.223 10.223A10.234 10.234 0 0 1 0 64.944"/></g><g fill="#3f3d56"><path d="M962.638 146.671a7.95 7.95 0 0 0-3.809 6.785v1.17h.936v-1.17a7.03 7.03 0 0 1 5.217-6.785Zm114.893-1.17H966.784a7.964 7.964 0 0 0-7.955 7.955v163.3a7.966 7.966 0 0 0 7.955 7.955h123.063a7.966 7.966 0 0 0 7.955-7.955V163.6Zm19.334 171.257a7.027 7.027 0 0 1-7.019 7.019H966.784a7.027 7.027 0 0 1-7.019-7.019v-163.3a7.03 7.03 0 0 1 5.217-6.785 7 7 0 0 1 1.8-.234h110.393l19.69 17.58ZM962.638 146.671a7.95 7.95 0 0 0-3.809 6.785v1.17h.936v-1.17a7.03 7.03 0 0 1 5.217-6.785Z"/><path d="M1097.333 164.218h-12.634a7.964 7.964 0 0 1-7.955-7.954v-10.295a.468.468 0 1 1 .936 0v10.294a7.027 7.027 0 0 0 7.019 7.019h12.634a.468.468 0 1 1 0 .936"/></g><g transform="translate(614.162 407.074)"><rect width="87.929" height="7.835" fill="#3f3d56" rx="3.918" transform="translate(33.073 6.305)"/><rect width="87.929" height="7.835" fill="#3f3d56" rx="3.918" transform="translate(33.073 35.167)"/><rect width="87.929" height="7.835" fill="#3f3d56" rx="3.918" transform="translate(33.073 61.025)"/><path fill="#6c63ff" d="M0 10.223a10.223 10.223 0 1 1 10.223 10.219A10.234 10.234 0 0 1 0 10.223M0 39.086a10.223 10.223 0 1 1 10.223 10.223A10.234 10.234 0 0 1 0 39.086M0 64.944a10.223 10.223 0 1 1 10.223 10.223A10.234 10.234 0 0 1 0 64.944"/></g><g fill="#3f3d56"><path d="M608.985 356.221a7.95 7.95 0 0 0-3.809 6.785v1.17h.936v-1.17a7.03 7.03 0 0 1 5.217-6.785Zm114.893-1.17H613.131a7.964 7.964 0 0 0-7.955 7.955v163.3a7.966 7.966 0 0 0 7.955 7.955h123.063a7.966 7.966 0 0 0 7.955-7.955V373.15Zm19.334 171.257a7.027 7.027 0 0 1-7.019 7.019H613.131a7.027 7.027 0 0 1-7.019-7.019v-163.3a7.03 7.03 0 0 1 5.217-6.785 7 7 0 0 1 1.8-.234h110.393l19.69 17.58ZM608.985 356.221a7.95 7.95 0 0 0-3.809 6.785v1.17h.936v-1.17a7.03 7.03 0 0 1 5.217-6.785Z"/><path d="M743.68 373.768h-12.634a7.964 7.964 0 0 1-7.955-7.954v-10.295a.468.468 0 1 1 .936 0v10.294a7.027 7.027 0 0 0 7.019 7.019h12.634a.468.468 0 1 1 0 .936"/></g></g></svg>